# xmcd
#
# Track frame offsets:
#	150
#	15325
#	30520
#	45826
#	59188
#	76799
#	94111
#	110137
#	128394
#	137730
#	148880
#
# Disc length: 2700 seconds
#
# Revision: 0
# Processed by: cddbd v1.5.1PL2 Copyright (c) Steve Scherf et al.
# Submitted via: dBpowerAMP V4.0
#
DISCID=8a0a8a0b
DTITLE=Southern Comfort - Selftitled
DYEAR=1969
DGENRE=Blues
TTITLE0=Easy (No.2)
TTITLE1=If It Ain´t Me Baby
TTITLE2=Sugar Mama
TTITLE3=Need My Baby
TTITLE4=Somethin' Else
TTITLE5=Walking By Myself
TTITLE6=Train Time
TTITLE7=Found A New Love
TTITLE8=Same Old Blues
TTITLE9=Paying Double
TTITLE10=Netti-Netti
EXTD=
EXTT0=
EXTT1=
EXTT2=
EXTT3=
EXTT4=
EXTT5=
EXTT6=
EXTT7=
EXTT8=
EXTT9=
EXTT10=
PLAYORDER=
